<svg xmlns="http://www.w3.org/2000/svg" viewBox="0 0 64 64" width="64" height="64">
  <defs>
    <linearGradient id="bgGrad" x1="0%" y1="0%" x2="100%" y2="100%">
      <stop offset="0%" stop-color="#34d399"/>
      <stop offset="50%" stop-color="#14b8a6"/>
      <stop offset="100%" stop-color="#0891b2"/>
    </linearGradient>
  </defs>

  <!-- Background rounded box matching store icon header -->
  <rect width="64" height="64" rx="16" fill="url(#bgGrad)"/>
  <rect width="60" height="60" x="2" y="2" rx="14" fill="none" stroke="#ffffff" stroke-opacity="0.35" stroke-width="2"/>

  <!-- Custom Detergent Spray Bottle + Soap Bubbles & Sparkles SVG -->
  <g transform="translate(8, 9) scale(1.4)">
    <!-- Spray Bottle Body -->
    <path d="M12 9 C12 7 14 6 16 6 C18 6 20 7 20 9 L20 12 L12 12 Z" fill="#67e8f9" opacity="0.95"/>
    <path d="M10 12 L22 12 L24 28 C24 29.5 22.5 30 21 30 L11 30 C9.5 30 8 29.5 8 28 Z" fill="#ffffff" opacity="0.25"/>
    <path d="M10 12 L22 12 L24 28 C24 29.5 22.5 30 21 30 L11 30 C9.5 30 8 29.5 8 28 Z" stroke="#ffffff" stroke-width="2" stroke-linejoin="round"/>
    
    <!-- Trigger & Nozzle -->
    <path d="M16 6 L16 2 L20 2" stroke="#ffffff" stroke-width="2" stroke-linecap="round"/>
    <path d="M14 4 L8 6 L12 9" stroke="#fef08a" stroke-width="2" stroke-linecap="round" stroke-linejoin="round"/>
    
    <!-- Soap Bubbles -->
    <circle cx="21" cy="18" r="2.5" fill="#67e8f9" opacity="0.9"/>
    <circle cx="14" cy="22" r="3.5" fill="#fef08a" opacity="0.85"/>
    <circle cx="18" cy="25" r="2" fill="#ffffff" opacity="0.95"/>
    
    <!-- Sparkles -->
    <path d="M26 3 L27 5.5 L29.5 6.5 L27 7.5 L26 10 L25 7.5 L22.5 6.5 L25 5.5 Z" fill="#fef08a"/>
    <path d="M6 14 L6.8 15.8 L8.6 16.6 L6.8 17.4 L6 19.2 L5.2 17.4 L3.4 16.6 L5.2 15.8 Z" fill="#67e8f9"/>
  </g>
</svg>
